<?xml version="1.0" encoding="UTF-8"?>
<!DOCTYPE svg PUBLIC "-//W3C//DTD SVG 1.1//EN" "http://www.w3.org/Graphics/SVG/1.1/DTD/svg11.dtd">
<!-- Creator: CorelDRAW 2019 (64-Bit) -->
<svg xmlns="http://www.w3.org/2000/svg" xml:space="preserve" width="256px" height="256px" version="1.1" style="shape-rendering:geometricPrecision; text-rendering:geometricPrecision; image-rendering:optimizeQuality; fill-rule:evenodd; clip-rule:evenodd"
viewBox="0 0 39.32 39.32"
 xmlns:xlink="http://www.w3.org/1999/xlink"
 xmlns:xodm="http://www.corel.com/coreldraw/odm/2003">
 <defs>
  <style type="text/css">
   <![CDATA[
    .fil2 {fill:#FEFEFE}
    .fil0 {fill:#B6B6B7}
    .fil1 {fill:#CC0000}
   ]]>
  </style>
 </defs>
 <g id="图层_x0020_1">
  <metadata id="CorelCorpID_0Corel-Layer"/>
  <path class="fil0" d="M3.72 0l31.88 0c2.05,0 3.72,1.67 3.72,3.72l0 31.88c0,2.05 -1.67,3.72 -3.72,3.72l-31.88 0c-2.05,0 -3.72,-1.67 -3.72,-3.72l0 -31.88c0,-2.05 1.67,-3.72 3.72,-3.72z"/>
  <path class="fil1" d="M4.1 0.47l31.12 0c2,0 3.63,1.63 3.63,3.63l0 31.12c0,2 -1.63,3.63 -3.63,3.63l-31.12 0c-2,0 -3.63,-1.63 -3.63,-3.63l0 -31.12c0,-2 1.63,-3.63 3.63,-3.63z"/>
  <path class="fil2" d="M4.12 26.47l-0.5 -0.22 -2.38 -1.05 0 -2.11 0 -2.1 2.38 -1.05 0.5 -0.22 0 6.75zm9.46 -24.43c0.35,0 0.63,0.28 0.63,0.63 0,0.35 -0.28,0.63 -0.63,0.63 -0.35,0 -0.63,-0.28 -0.63,-0.63 0,-0.35 0.28,-0.63 0.63,-0.63zm0 0.14c0.27,0 0.49,0.22 0.49,0.49 0,0.27 -0.22,0.49 -0.49,0.49 -0.27,0 -0.49,-0.22 -0.49,-0.49 0,-0.27 0.22,-0.49 0.49,-0.49zm15.62 2.08c0.69,0 1.25,0.56 1.25,1.25 0,0.7 -0.56,1.26 -1.25,1.26 -0.7,0 -1.26,-0.56 -1.26,-1.26 0,-0.69 0.56,-1.25 1.26,-1.25zm0 0.27c0.54,0 0.98,0.44 0.98,0.98 0,0.55 -0.44,0.99 -0.98,0.99 -0.55,0 -0.99,-0.44 -0.99,-0.99 0,-0.54 0.44,-0.98 0.99,-0.98zm-1.46 1.62l0.39 0.61 -4.93 3.47c-0.11,-0.45 -0.34,-0.86 -0.65,-1.18l5.19 -2.9zm-7.37 2.39c1.39,0 2.52,1.13 2.52,2.52 0,1.39 -1.13,2.51 -2.52,2.51 -1.39,0 -2.51,-1.12 -2.51,-2.51 0,-1.39 1.12,-2.52 2.51,-2.52zm0 0.55c1.09,0 1.97,0.88 1.97,1.97 0,1.08 -0.88,1.96 -1.97,1.96 -1.08,0 -1.96,-0.88 -1.96,-1.96 0,-1.09 0.88,-1.97 1.96,-1.97zm-6.48 -5.49l0.41 -0.31 4.27 5.41c-0.18,0.14 -0.35,0.31 -0.49,0.5l-4.19 -5.6zm-8.74 10.55c9.67,0 19.35,0 29.02,0l0 17.89 -29.02 0 0 -17.89zm4.97 13.78l19.08 0c0.55,0 1,0.45 1,1l0 0c0,0.54 -0.45,0.99 -1,0.99l-19.08 0c-0.55,0 -1,-0.45 -1,-0.99l0 0c0,-0.55 0.45,-1 1,-1zm4.64 -10.47c2.26,0 4.1,1.84 4.1,4.11 0,2.27 -1.84,4.11 -4.1,4.11 -2.27,0 -4.11,-1.84 -4.11,-4.11 0,-2.27 1.84,-4.11 4.11,-4.11zm11.26 1.46c1.47,0 2.65,1.19 2.65,2.65 0,1.46 -1.18,2.65 -2.65,2.65 -1.46,0 -2.65,-1.19 -2.65,-2.65 0,-1.46 1.19,-2.65 2.65,-2.65zm9.18 7.55l0.5 -0.22 2.38 -1.05 0 -2.11 0 -2.1 -2.38 -1.05 -0.5 -0.22 0 6.75z"/>
 </g>
</svg>
